<svg width="48" height="48" viewBox="0 0 48 48" fill="none" xmlns="http://www.w3.org/2000/svg">
  <!-- Заливка молнии -->
  <path d="M24.9553 9.71978C25.1463 9.71978 25.3135 9.86307 25.3135 10.078V21.0869C25.3135 21.278 25.4806 21.4452 25.6717 21.4452H33.2179C33.5045 21.4452 33.6717 21.7556 33.5284 21.9944L24.2627 37.8511C24.1911 37.9705 24.0717 38.0422 23.9523 38.0422C23.7612 38.0422 23.5941 37.8989 23.5941 37.684V26.7944C23.5941 26.6034 23.4269 26.4362 23.2359 26.4362H14.4956C14.209 26.4362 14.0418 26.1258 14.1851 25.8631L24.6448 9.86307C24.6448 9.86307 24.8359 9.6959 24.9553 9.6959M24.9553 6.1377C23.6179 6.1377 22.3762 6.80635 21.6597 7.92874L11.2 23.9287C10.412 25.1467 10.3403 26.6989 11.0329 27.9646C11.7254 29.2302 13.0627 30.0422 14.4956 30.0422H20.012V37.7078C20.012 39.881 21.7791 41.6481 23.9523 41.6481C25.3373 41.6481 26.6508 40.9078 27.3672 39.6899L36.6329 23.8332C37.3493 22.6153 37.3493 21.1108 36.6329 19.869C35.9403 18.6511 34.6269 17.8869 33.2179 17.8869H28.8717V10.1019C28.8717 7.92874 27.1045 6.16158 24.9314 6.16158L24.9553 6.1377Z" fill="red"/>
  
  <!-- Внутренний слой молнии -->
  <path d="M24.9553 10.5L16.5 24.5H23V36L32.5 22.5H26V10.5H24.9553Z" fill="red"/>

  <!-- Контур молнии -->
  <path d="M24.9553 9.71978C25.1463 9.71978 25.3135 9.86307 25.3135 10.078V21.0869C25.3135 21.278 25.4806 21.4452 25.6717 21.4452H33.2179C33.5045 21.4452 33.6717 21.7556 33.5284 21.9944L24.2627 37.8511C24.1911 37.9705 24.0717 38.0422 23.9523 38.0422C23.7612 38.0422 23.5941 37.8989 23.5941 37.684V26.7944C23.5941 26.6034 23.4269 26.4362 23.2359 26.4362H14.4956C14.209 26.4362 14.0418 26.1258 14.1851 25.8631L24.6448 9.86307C24.6448 9.86307 24.8359 9.6959 24.9553 9.6959M24.9553 6.1377C23.6179 6.1377 22.3762 6.80635 21.6597 7.92874L11.2 23.9287C10.412 25.1467 10.3403 26.6989 11.0329 27.9646C11.7254 29.2302 13.0627 30.0422 14.4956 30.0422H20.012V37.7078C20.012 39.881 21.7791 41.6481 23.9523 41.6481C25.3373 41.6481 26.6508 40.9078 27.3672 39.6899L36.6329 23.8332C37.3493 22.6153 37.3493 21.1108 36.6329 19.869C35.9403 18.6511 34.6269 17.8869 33.2179 17.8869H28.8717V10.1019C28.8717 7.92874 27.1045 6.16158 24.9314 6.16158L24.9553 6.1377Z" fill="none" stroke="#231F20" stroke-width="1"/>
</svg>
