<svg width="48" height="48" viewBox="0 0 48 48" fill="none" xmlns="http://www.w3.org/2000/svg">
  <!-- Круг внутри -->

  <polygon points="23.55,13 34,32 13,32" fill="#FFDD00" />
  <path d="M23.6719 21.9669C24.6611 21.9669 25.4629 21.165 25.4629 20.1758C25.4629 19.1866 24.6611 18.3848 23.6719 18.3848C22.6827 18.3848 21.8809 19.1866 21.8809 20.1758C21.8809 21.165 22.6827 21.9669 23.6719 21.9669Z" fill="#231F20" />
  
  <!-- Линия внутри -->
  <path d="M23.6719 31.1137C22.6928 31.1137 21.8809 30.3017 21.8809 29.3226V25.6211C21.8809 24.642 22.6928 23.8301 23.6719 23.8301C24.651 23.8301 25.4629 24.642 25.4629 25.6211V29.3226C25.4629 30.3017 24.651 31.1137 23.6719 31.1137Z" fill="#231F20" />
  
  <!-- Внешний треугольник -->
  <path d="M23.5522 12.5821L35.5164 33.3343H11.5642L23.5284 12.5821M23.5522 9C22.2627 9 21.0925 9.69254 20.4478 10.791L8.48358 31.5433C7.83881 32.6418 7.83881 34.0269 8.48358 35.1254C9.12836 36.2239 10.2985 36.9164 11.5881 36.9164H35.5403C36.8299 36.9164 38 36.2239 38.6448 35.1254C39.2895 34.0269 39.2895 32.6418 38.6448 31.5433L26.6806 10.791C26.0358 9.69254 24.8657 9 23.5761 9H23.5522Z" fill="#231F20" />
  
  <!-- Заливка внутри треугольника -->

</svg>
