<svg width="48" height="48" viewBox="0 0 48 48" fill="none" xmlns="http://www.w3.org/2000/svg">
  <!-- Внешний круг -->
  <path d="M23.6 41.7118C14.048 41.7118 6.24805 33.9358 6.24805 24.3598C6.24805 14.7838 14.024 7.00781 23.6 7.00781C33.176 7.00781 40.9521 14.7838 40.9521 24.3598C40.9521 33.9358 33.176 41.7118 23.6 41.7118ZM23.6 10.6318C16.016 10.6318 9.84805 16.7998 9.84805 24.3838C9.84805 31.9678 16.016 38.1358 23.6 38.1358C31.184 38.1358 37.3521 31.9678 37.3521 24.3838C37.3521 16.7998 31.184 10.6318 23.6 10.6318Z" fill="#231F20"/>
  
  <!-- Внутренний круг (заливка внутри) -->
  <circle cx="23.6" cy="24" r="15" fill="green" />

  <!-- Глаза -->
  <path d="M18.1037 22.4398C19.0978 22.4398 19.9037 21.634 19.9037 20.6398C19.9037 19.6457 19.0978 18.8398 18.1037 18.8398C17.1096 18.8398 16.3037 19.6457 16.3037 20.6398C16.3037 21.634 17.1096 22.4398 18.1037 22.4398Z" fill="#231F20"/>
  <path d="M29.0959 22.4398C30.09 22.4398 30.8959 21.634 30.8959 20.6398C30.8959 19.6457 30.09 18.8398 29.0959 18.8398C28.1018 18.8398 27.2959 19.6457 27.2959 20.6398C27.2959 21.634 28.1018 22.4398 29.0959 22.4398Z" fill="#231F20"/>
  
  <!-- Улыбка -->
  <path d="M23.5996 33.0958C22.3276 33.0958 21.1036 32.8558 19.9276 32.3518C18.7516 31.8478 17.7196 31.1518 16.8316 30.2398C16.1356 29.5198 16.1356 28.3918 16.8316 27.6958C17.5516 26.9998 18.6796 27.0238 19.3756 27.7198C19.9276 28.2718 20.5756 28.7278 21.2956 29.0398C22.7356 29.6398 24.3916 29.6398 25.8556 29.0398C26.5756 28.7278 27.2236 28.2958 27.7756 27.7198C28.4716 26.9998 29.5996 26.9998 30.3196 27.6958C31.0396 28.3918 31.0396 29.5438 30.3196 30.2398C29.4316 31.1518 28.3996 31.8478 27.2236 32.3518C26.0476 32.8558 24.8236 33.0958 23.5516 33.0958H23.5996Z" fill="#231F20"/>
</svg>
